<svg fill="none" height="36" width="36" xmlns="http://www.w3.org/2000/svg"><circle cx="18" cy="18" r="17.5" stroke="#000"/><path clip-rule="evenodd" d="M15.162 11.93c0-.482.148-1.213.579-1.811.414-.576 1.109-1.057 2.289-1.057 1.18 0 1.874.481 2.289 1.057.43.598.578 1.33.578 1.81v1.543h-5.735zm-.89 1.542v-1.543c0-.623.183-1.548.746-2.33.58-.805 1.541-1.428 3.012-1.428 1.47 0 2.432.623 3.011 1.428.563.782.747 1.707.747 2.33v1.543h2.583l.06.374 1.924 11.926.083.516H9.563l.085-.518 1.978-11.926.062-.372h.378zm-3.66 11.926l1.83-11.036h11.17l1.78 11.036z" fill="#000" fill-rule="evenodd"/></svg>
